<?xml version="1.0" encoding="utf-8"?>
<!-- Generator: Adobe Illustrator 16.0.3, SVG Export Plug-In . SVG Version: 6.00 Build 0)  -->
<!DOCTYPE svg PUBLIC "-//W3C//DTD SVG 1.1//EN" "http://www.w3.org/Graphics/SVG/1.1/DTD/svg11.dtd">
<svg version="1.1" xmlns="http://www.w3.org/2000/svg" xmlns:xlink="http://www.w3.org/1999/xlink" x="0px" y="0px" width="1042px"
	 height="500px" viewBox="0 0 1042 500" enable-background="new 0 0 1042 500" xml:space="preserve">
<g id="Layer_1">
	<linearGradient id="SVGID_1_" gradientUnits="userSpaceOnUse" x1="521.0298" y1="500" x2="521.0297" y2="-268.062">
		<stop  offset="0" style="stop-color:#EF8764"/>
		<stop  offset="0.0345" style="stop-color:#DC8065"/>
		<stop  offset="0.1321" style="stop-color:#B67267"/>
		<stop  offset="0.2366" style="stop-color:#986768"/>
		<stop  offset="0.3476" style="stop-color:#825F68"/>
		<stop  offset="0.4677" style="stop-color:#715A68"/>
		<stop  offset="0.6011" style="stop-color:#655668"/>
		<stop  offset="0.7585" style="stop-color:#5E5368"/>
		<stop  offset="1" style="stop-color:#5C5368"/>
	</linearGradient>
	<rect x="-0.152" y="-268.062" fill="url(#SVGID_1_)" width="1042.363" height="768.062"/>
	<polygon fill="#AF593F" points="79.446,345.646 68.884,345.646 62.14,343.102 44.325,348.446 29.946,348.446 21.802,351.755 
		14.549,350.864 6.149,351.755 -0.212,349.974 -0.212,372.114 74.101,378.823 86.699,368.341 92.934,349.337 	"/>
	<path fill="#DE6C26" d="M321.092,364.353l-8.144-2.672h-6.235l-4.835-1.909l-14.379,0.637l-8.398-1.526l-5.217-1.781l-8.525,2.417
		l-6.363-2.417l-8.653,1.145l-5.472-2.799l-12.47-0.764l-6.108-1.442l-8.526,2.078l-3.945-1.271l-4.454,0.51l-10.562-0.128
		l-6.363-2.417h-8.78l-8.334-0.893l-7.953,1.02l-5.599-1.02l-7.762,2.801l-6.872,0.637l-4.962-1.909l-7.508,0.594l-9.162-4.92
		l-10.052,2.928l-4.072-1.146l-5.599,0.382l-3.182-2.163H89.752l-9.543-2.673l-11.834,2.545l12.216,2.418l9.926-0.382l-5.727,4.772
		l-11.58,3.881l14.506-2.672l-9.543,7.253l-9.798,0.891l12.598,1.782l-4.326,2.206l-8.271,0.847l11.961,2.292l10.689,0.763
		l24.305,6.362c0,0,157.28,5.098,157.407,4.839C272.864,383.186,321.092,364.353,321.092,364.353z"/>
	<path fill="#DE6C26" d="M445.489,355.345l-4.274-0.536l-4.072,1.781h-6.49l-7.253,3.562l-5.726-1.271l-11.071,2.035l-10.18-3.689
		l-5.726-0.891l-9.415,1.873l-11.327,10.088c0,0,3.054,5.98,3.436,6.107s19.342,4.835,19.724,4.835
		c0.382,0,23.541-3.562,23.541-3.562l20.105-9.543L445.489,355.345z"/>
	<polyline fill="#B75327" points="104.697,371.487 108.713,370.546 112.785,371.016 115.33,368.17 120.08,366.983 123.812,364.098 
		137.217,365.455 147.396,360.875 156.05,360.875 171.149,353.239 179.803,354.936 186.08,353.239 197.107,356.463 204.913,355.615 
		225.952,366.135 232.229,366.135 244.445,369.357 252.25,369.188 260.394,371.487 272.61,370.036 286.182,370.715 297.423,363.419 
		305.015,364.438 310.276,363.25 314.517,366.135 321.304,363.081 333.857,364.268 341.154,362.363 358.12,364.268 367.283,359.688 
		371.524,360.366 379.476,357.651 384.418,359.178 390.867,358.5 404.438,362.363 390.356,361.554 375.088,366.135 396.805,366.135 
		409.869,363.081 389.679,371.487 377.292,374.618 402.742,370.037 410.547,366.135 401.216,374.618 349.334,400.459 
		293.647,409.229 91.746,389.718 91.746,373.26 103.961,371.479 	"/>
	<path fill="#B34F26" d="M379.476,378.291l-12.447-1.851l-24.348,3.097l-20.253-1.548l-13.51-4.094l-13.403,0.509l14.125,1.019
		l9.417,1.908h-14.379l15.779,2.163l11.707-0.509l-5.09,2.29h-17.816l16.797,2.163l21.887-2.163h15.397l-10.18,3.69l-6.872-1.272
		l-13.488,0.636l16.033,4.327l26.722-10.435l-8.525-1.781l-11.453,0.892l-11.198-1.146l-10.689,1.146l-11.262-0.892l-12.407-2.545
		h-14.506l-20.36,2.417l-19.512-0.169l-11.876,1.188l-7.975-0.849l-16.118-1.019l-6.617-0.849l-9.841,2.884l-10.349,0.171
		l-5.26,1.018l-13.064-1.696l-12.385,1.356l-16.797,2.927l-16.288-5.133l-10.859-1.354l-7.974-2.038l-14.335-3.269l-18.58,4.285
		l-30.37-2.884l-13.573-0.34l-11.029-2.885v-1.525l-9.449,2.706l-13.116-2.706v40.465c0,0,275.945,28.287,275.261,28.433
		c-0.684,0.146,104.427-46.375,104.427-46.375L379.476,378.291L379.476,378.291z"/>
	<polygon fill="#8C381F" points="67.311,380.574 84.451,378.52 92.934,380.574 101.586,381.577 115.16,385.984 127.037,387.174 
		142.815,390.906 175.902,381.577 190.831,386.494 217.299,385.814 253.606,388.657 276.343,388.657 292.085,387.412 
		310.785,383.443 329.787,384.712 350.868,390.906 271.252,414.106 315.366,442.653 306.203,457.584 253.438,460.638 
		-0.212,411.053 -0.212,373.769 	"/>
	<polygon fill="#5C2311" points="-0.212,406.6 125.765,430.521 137.471,433.576 154.014,435.866 178.7,441.211 189.897,441.211 
		201.096,441.211 217.129,443.247 228.327,441.72 243.597,445.537 256.322,445.537 236.979,441.466 228.073,437.394 
		209.494,440.447 212.039,436.375 182.517,438.666 201.35,432.049 170.047,435.612 173.61,430.268 148.16,432.304 108.713,424.923 
		79.446,418.815 107.186,414.106 143.325,415.507 167.757,414.106 197.278,416.779 225.438,415.761 313.329,404.055 
		385.862,375.805 401.64,375.805 425.054,364.098 430.907,359.517 441.342,357.481 449.74,353.154 463.482,350.355 470.1,347.301 
		477.898,345.519 487.66,339.157 493.769,337.121 502.06,331.745 516.674,325.16 521,322.105 521,500 -0.212,500 	"/>
	<path fill="#2B1310" d="M-0.212,406.6l84.493,16.287l46.573,11.453l21.378,3.309l29.776,6.616h28.758l29.776,5.09l-19.851,3.817
		l43.01-3.309l21.378,3.309h20.105l-44.792-9.416l27.486-11.452l-44.283,9.416l26.977-12.979l-58.534,9.417l26.213-8.271
		l-45.046,7.508l47.336-16.797l-64.897,11.198l14.252-5.601l-29.267,3.69l89.329-19.469l27.486-3.817l23.414-5.6l18.833-2.8
		l16.542-4.327l13.743-4.07l17.814-5.345l-37.411,14.252l31.812-6.872l-22.396,15.016l29.268-7.635l-5.09,16.797l-16.542,13.743
		l27.486-13.743l6.617-10.436l-6.108,21.123l-7.89,8.146l16.542-11.452l3.563-29.014c0,0-13.743,10.435-12.979,9.926
		s12.979-17.814,12.979-17.814l-20.614,7.636l14.506-14.252l8.398-2.545l6.108-3.31l16.542-2.545l10.434-6.362l3.818,2.036
		l4.325-5.09l6.108,1.526l2.291-3.817h4.327l3.054-4.581h6.363l3.816-3.309h6.108l-3.562,4.327l-11.707,5.344l15.27-4.581
		l8.144-8.652l5.345-2.036l4.327-2.8h4.326l7.125-6.362h4.072l2.291-4.071l6.871-2.799l9.926-2.036l5.345-4.836v39.701
		c0,0-12.726,99-14.507,98.49c-1.78-0.509-58.789,20.36-58.789,20.36s-140.482,8.397-139.719,7.89
		c0.763-0.51-308.197-2.545-308.197-2.545L-0.212,406.6L-0.212,406.6z"/>
	<polygon fill="#130F0F" points="-0.212,408.125 47.379,423.905 72.829,428.486 94.206,443.756 122.456,445.791 101.332,433.067 
		137.726,441.72 156.812,456.48 150.451,443.756 175.137,459.535 200.841,462.08 195.243,452.409 210.767,457.5 219.419,471.242 
		240.288,474.041 223.492,467.17 256.066,472.005 269.301,486.003 255.049,462.589 274.391,473.787 268.792,463.606 
		312.057,475.568 287.37,465.134 359.647,458.263 312.821,459.789 383.062,450.373 361.175,458.771 416.655,457.753 
		395.787,452.918 450.759,452.918 479.517,442.992 473.918,450.627 497.586,434.849 452.794,422.378 438.797,405.581 
		416.146,402.272 393.242,391.075 418.945,391.075 407.238,384.967 447.704,374.532 432.688,374.532 475.698,357.735 
		456.356,362.316 487.151,346.028 504.203,343.992 521,328.214 521,500 -0.212,500 	"/>
	<polygon fill="#5C2311" points="-0.212,366.135 -0.212,404.31 23.371,408.212 39.829,404.31 22.183,404.648 12.682,401.765 
		23.541,402.104 52.384,398.202 26.085,395.147 19.13,395.486 26.085,392.603 60.188,397.014 37.284,388.361 59,393.451 
		71.387,391.755 57.305,390.058 39.149,383.44 64.77,384.798 48.142,380.726 59.171,381.575 67.993,380.726 56.625,378.181 
		46.276,374.109 36.945,374.618 23.881,371.055 16.076,368.341 9.627,369.359 	"/>
	<polygon fill="#8C381F" points="18.62,368.004 37.453,373.434 46.785,372.416 57.474,377.166 70.199,378.863 83.771,375.809 
		99.21,378.184 110.24,383.443 98.363,374.961 107.186,377.506 97.854,372.925 108.204,374.112 98.533,370.549 92.255,368.004 
		79.53,370.38 70.538,370.38 66.126,372.076 56.965,369.191 50.687,369.871 45.258,367.156 37.623,369.191 31.515,368.513 
		25.407,368.174 22.353,366.135 	"/>
	<path fill="#B75327" d="M307.223,394.979l-16.627-8.312h-6.787l-5.938-2.206h-6.957l-7.635-1.866l-11.367,2.205l-10.35-3.224
		l-16.627,3.562l-11.876-2.206l-9.332,0.17l-3.902-1.526l-11.028,2.545l-12.894-2.545l-19.342,6.701l-21.208,6.701l32.236-6.701
		l-19.172,5.854l25.28-4.072l8.823-3.054l-14.591,11.367l-5.599,5.43l10.01-4.751l12.216-11.367l-1.357,13.573l3.563,7.635
		l-0.509-7.805l1.527-9.672l4.92-3.394l4.072,7.211l2.545,8.907l1.188,4.751l2.036,3.901l-0.17-7.465c0,0,0.679-5.938,0.679-6.617
		s-4.242-9.501-4.242-9.501l9.841,6.956l14.591,12.387l12.216,0.678l-10.859-4.92l-10.519-13.063l15.609,11.707l16.967,5.09
		l11.368-1.436l-20.7-11.29l-3.563-6.106l14.592,7.973l18.154,7.636l13.743-0.849l-13.573-3.055l-11.198-9.501l15.948,7.466
		l18.664,2.035l17.136-2.714l-18.154-1.02l-11.028-5.259l12.725,3.224L307.223,394.979z"/>
	<polygon fill="#B75327" points="297.423,386.875 309.258,384.33 324.146,385.604 333.181,385.604 347.432,389.421 332.799,392.983 
		316.765,392.983 332.035,390.82 308.24,391.966 300.986,390.312 309.894,390.312 320.201,388.021 306.584,388.657 	"/>
	<polygon fill="#5C2311" points="228.073,437.394 209.494,440.447 182.517,438.666 170.047,435.612 138.489,431.795 
		116.028,426.291 163.812,430.395 176.155,428.74 174.627,432.049 203.386,430.776 190.916,437.012 193.46,437.902 213.565,435.23 
		211.021,438.284 	"/>
	<polygon fill="#8C381F" points="70.199,378.863 65.957,380.386 56.625,378.181 46.276,374.109 36.945,374.618 16.076,368.341 
		9.627,369.359 -0.212,366.135 11.325,368.34 22.353,366.135 40.336,371.394 70.199,375.466 	"/>
	<polygon fill="#8C381F" points="16.076,368.341 23.881,371.055 36.945,374.618 31.6,371.055 	"/>
	<polygon fill="#8C381F" points="83.771,375.809 67.993,380.726 64.431,380.025 79.063,373.26 	"/>
	<polygon fill="#B75327" points="306.584,388.657 295.844,386.615 310.785,383.443 329.787,384.712 337.604,386.788 
		333.435,387.852 315.874,386.495 	"/>
	<polygon fill="#AF593F" points="962.553,345.646 973.115,345.646 979.859,343.102 997.674,348.446 1012.053,348.446 
		1020.197,351.755 1027.451,350.864 1035.85,351.755 1042.211,349.974 1042.211,372.114 967.898,378.823 955.301,368.341 
		949.064,349.337 	"/>
	<path fill="#DE6C26" d="M720.908,364.353l8.145-2.672h6.234l4.836-1.909l14.379,0.637l8.396-1.526l5.217-1.781l8.527,2.417
		l6.361-2.417l8.652,1.145l5.473-2.799l12.471-0.764l6.109-1.442l8.525,2.078l3.943-1.271l4.455,0.51l10.561-0.128l6.363-2.417
		h8.779l8.336-0.893l7.953,1.02l5.598-1.02l7.762,2.801l6.873,0.637l4.963-1.909l7.508,0.594l9.16-4.92l10.055,2.928l4.07-1.146
		l5.6,0.382l3.182-2.163h12.852l9.545-2.673l11.834,2.545l-12.217,2.418l-9.926-0.382l5.727,4.772l11.58,3.881l-14.506-2.672
		l9.543,7.253l9.799,0.891l-12.6,1.782l4.328,2.206l8.271,0.847l-11.961,2.292l-10.689,0.763l-24.305,6.362
		c0,0-157.279,5.098-157.406,4.839C769.135,383.186,720.908,364.353,720.908,364.353z"/>
	<path fill="#DE6C26" d="M596.51,355.345l4.275-0.536l4.07,1.781h6.49l7.254,3.562l5.727-1.271l11.07,2.035l10.18-3.689l5.727-0.891
		l9.414,1.873l11.328,10.088c0,0-3.055,5.98-3.438,6.107c-0.381,0.127-19.342,4.835-19.723,4.835s-23.541-3.562-23.541-3.562
		l-20.105-9.543L596.51,355.345z"/>
	<polyline fill="#B75327" points="937.303,371.487 933.287,370.546 929.215,371.016 926.67,368.17 921.92,366.983 918.186,364.098 
		904.781,365.455 894.602,360.875 885.951,360.875 870.85,353.239 862.197,354.936 855.918,353.239 844.891,356.463 
		837.086,355.615 816.047,366.135 809.77,366.135 797.555,369.357 789.75,369.188 781.605,371.487 769.389,370.036 755.816,370.715 
		744.576,363.419 736.982,364.438 731.723,363.25 727.482,366.135 720.695,363.081 708.141,364.268 700.846,362.363 
		683.879,364.268 674.717,359.688 670.475,360.366 662.523,357.651 657.58,359.178 651.133,358.5 637.561,362.363 651.641,361.554 
		666.912,366.135 645.195,366.135 632.131,363.081 652.32,371.487 664.707,374.618 639.256,370.037 631.451,366.135 
		640.783,374.618 692.664,400.459 748.352,409.229 950.254,389.718 950.254,373.26 938.037,371.479 	"/>
	<path fill="#B34F26" d="M662.523,378.291l12.447-1.851l24.348,3.097l20.252-1.548l13.512-4.094l13.402,0.509l-14.125,1.019
		l-9.418,1.908h14.379l-15.777,2.163l-11.707-0.509l5.09,2.29h17.814l-16.797,2.163l-21.887-2.163H678.66l10.18,3.69l6.871-1.272
		l13.488,0.636l-16.033,4.327l-26.723-10.435l8.525-1.781l11.453,0.892l11.197-1.146l10.689,1.146l11.262-0.892l12.406-2.545h14.506
		l20.359,2.417l19.512-0.169l11.877,1.188l7.975-0.849l16.119-1.019l6.615-0.849l9.842,2.884l10.35,0.171l5.26,1.018l13.064-1.696
		l12.385,1.356l16.797,2.927l16.287-5.133l10.859-1.354l7.975-2.038l14.334-3.269l18.58,4.285l30.371-2.884l13.574-0.34
		l11.027-2.885v-1.525l9.449,2.706l13.115-2.706v40.465c0,0-275.945,28.287-275.262,28.433
		c0.684,0.146-104.428-46.375-104.428-46.375v-10.364H662.523z"/>
	<polygon fill="#8C381F" points="974.688,380.574 957.549,378.52 949.064,380.574 940.412,381.577 926.84,385.984 914.963,387.174 
		899.184,390.906 866.098,381.577 851.168,386.494 824.701,385.814 788.393,388.657 765.656,388.657 749.912,387.412 
		731.215,383.443 712.213,384.712 691.133,390.906 770.746,414.106 726.635,442.653 735.795,457.584 788.561,460.638 
		1042.211,411.053 1042.211,373.769 	"/>
	<polygon fill="#5C2311" points="1042.211,406.6 916.234,430.521 904.527,433.576 887.984,435.866 863.299,441.211 852.102,441.211 
		840.902,441.211 824.871,443.247 813.672,441.72 798.402,445.537 785.678,445.537 805.02,441.466 813.926,437.394 832.506,440.447 
		829.961,436.375 859.482,438.666 840.648,432.049 871.953,435.612 868.389,430.268 893.84,432.304 933.287,424.923 
		962.553,418.815 934.812,414.106 898.674,415.507 874.244,414.106 844.721,416.779 816.561,415.761 728.67,404.055 
		656.139,375.805 640.359,375.805 616.945,364.098 611.092,359.517 600.656,357.481 592.26,353.154 578.516,350.355 
		571.898,347.301 564.1,345.519 554.338,339.157 548.23,337.121 539.939,331.745 525.326,325.16 521,322.105 521,500 1042.211,500 	
		"/>
	<path fill="#2B1310" d="M1042.211,406.6l-84.492,16.287l-46.574,11.453l-21.377,3.309l-29.775,6.616h-28.76l-29.775,5.09
		l19.852,3.817l-43.01-3.309l-21.379,3.309h-20.105l44.793-9.416l-27.486-11.452l44.283,9.416l-26.977-12.979l58.535,9.417
		l-26.213-8.271l45.045,7.508l-47.336-16.797l64.896,11.198l-14.252-5.601l29.268,3.69l-89.328-19.469l-27.486-3.817l-23.414-5.6
		l-18.834-2.8l-16.541-4.327l-13.744-4.07l-17.814-5.345l37.412,14.252l-31.812-6.872l22.396,15.016l-29.268-7.635l5.09,16.797
		l16.541,13.743l-27.484-13.743l-6.617-10.436l6.107,21.123l7.889,8.146l-16.541-11.452l-3.564-29.014
		c0,0,13.744,10.435,12.98,9.926s-12.98-17.814-12.98-17.814l20.615,7.636l-14.506-14.252l-8.398-2.545l-6.107-3.31l-16.541-2.545
		l-10.436-6.362l-3.816,2.036l-4.328-5.09l-6.107,1.526l-2.291-3.817h-4.326l-3.055-4.581h-6.361l-3.816-3.309h-6.109l3.564,4.327
		l11.707,5.344l-15.271-4.581l-8.143-8.652l-5.346-2.036l-4.326-2.8h-4.326l-7.127-6.362h-4.072l-2.291-4.071l-6.871-2.799
		l-9.926-2.036l-5.344-4.836v39.701c0,0,12.725,99,14.506,98.49c1.781-0.509,58.789,20.36,58.789,20.36s140.482,8.397,139.719,7.89
		c-0.764-0.51,308.197-2.545,308.197-2.545V406.6H1042.211z"/>
	<polygon fill="#130F0F" points="1042.211,408.125 994.621,423.905 969.17,428.486 947.793,443.756 919.543,445.791 
		940.666,433.067 904.273,441.72 885.186,456.48 891.549,443.756 866.861,459.535 841.158,462.08 846.758,452.409 831.232,457.5 
		822.58,471.242 801.711,474.041 818.508,467.17 785.932,472.005 772.697,486.003 786.951,462.589 767.607,473.787 773.207,463.606 
		729.941,475.568 754.629,465.134 682.352,458.263 729.18,459.789 658.938,450.373 680.824,458.771 625.344,457.753 
		646.213,452.918 591.24,452.918 562.482,442.992 568.082,450.627 544.414,434.849 589.205,422.378 603.203,405.581 
		625.852,402.272 648.758,391.075 623.053,391.075 634.76,384.967 594.295,374.532 609.311,374.532 566.301,357.735 
		585.641,362.316 554.848,346.028 537.797,343.992 521,328.214 521,500 1042.211,500 	"/>
	<polygon fill="#5C2311" points="1042.211,366.135 1042.211,404.31 1018.627,408.212 1002.17,404.31 1019.814,404.648 
		1029.316,401.765 1018.459,402.104 989.615,398.202 1015.914,395.147 1022.869,395.486 1015.914,392.603 981.811,397.014 
		1004.715,388.361 982.998,393.451 970.611,391.755 984.695,390.058 1002.848,383.44 977.229,384.798 993.857,380.726 
		982.828,381.575 974.006,380.726 985.373,378.181 995.723,374.109 1005.055,374.618 1018.119,371.055 1025.924,368.341 
		1032.371,369.359 	"/>
	<polygon fill="#8C381F" points="1023.379,368.004 1004.545,373.434 995.215,372.416 984.525,377.166 971.801,378.863 
		958.227,375.809 942.787,378.184 931.76,383.443 943.637,374.961 934.812,377.506 944.145,372.925 933.795,374.112 
		943.467,370.549 949.744,368.004 962.469,370.38 971.461,370.38 975.873,372.076 985.035,369.191 991.312,369.871 996.74,367.156 
		1004.377,369.191 1010.484,368.513 1016.592,368.174 1019.646,366.135 	"/>
	<path fill="#B75327" d="M734.777,394.979l16.627-8.312h6.787l5.938-2.206h6.957l7.635-1.866l11.369,2.205l10.348-3.224
		l16.627,3.562l11.877-2.206l9.332,0.17l3.902-1.526l11.027,2.545l12.895-2.545l19.342,6.701l21.209,6.701l-32.236-6.701
		l19.172,5.854l-25.279-4.072l-8.824-3.054l14.592,11.367l5.6,5.43l-10.012-4.751l-12.215-11.367l1.357,13.573l-3.564,7.635
		l0.51-7.805l-1.527-9.672l-4.92-3.394l-4.072,7.211l-2.545,8.907l-1.188,4.751l-2.035,3.901l0.17-7.465c0,0-0.68-5.938-0.68-6.617
		s4.242-9.501,4.242-9.501l-9.842,6.956l-14.59,12.387l-12.217,0.678l10.859-4.92l10.52-13.063l-15.609,11.707l-16.967,5.09
		l-11.369-1.436l20.701-11.29l3.562-6.106l-14.592,7.973l-18.154,7.636l-13.742-0.849l13.572-3.055l11.197-9.501l-15.949,7.466
		l-18.662,2.035l-17.137-2.714l18.154-1.02l11.029-5.259l-12.727,3.224L734.777,394.979z"/>
	<polygon fill="#B75327" points="744.576,386.875 732.742,384.33 717.854,385.604 708.818,385.604 694.566,389.421 709.201,392.983 
		725.234,392.983 709.965,390.82 733.76,391.966 741.014,390.312 732.105,390.312 721.799,388.021 735.414,388.657 	"/>
	<polygon fill="#5C2311" points="813.926,437.394 832.506,440.447 859.482,438.666 871.953,435.612 903.51,431.795 925.971,426.291 
		878.188,430.395 865.844,428.74 867.371,432.049 838.613,430.776 851.084,437.012 848.539,437.902 828.434,435.23 830.979,438.284 
			"/>
	<polygon fill="#8C381F" points="971.801,378.863 976.043,380.386 985.373,378.181 995.723,374.109 1005.055,374.618 
		1025.924,368.341 1032.371,369.359 1042.211,366.135 1030.674,368.34 1019.646,366.135 1001.662,371.394 971.801,375.466 	"/>
	<polygon fill="#8C381F" points="1025.924,368.341 1018.119,371.055 1005.055,374.618 1010.398,371.055 	"/>
	<polygon fill="#8C381F" points="958.227,375.809 974.006,380.726 977.568,380.025 962.936,373.26 	"/>
	<polygon fill="#B75327" points="735.414,388.657 746.154,386.615 731.215,383.443 712.213,384.712 704.395,386.788 
		708.564,387.852 726.125,386.495 	"/>
	<polygon fill="#130F0F" points="521,328.214 512.348,385.271 516.681,500 523.681,499.938 528.514,341.271 	"/>
	<polygon fill="#2B1310" points="521.002,323.379 519.347,327.104 521,328.214 522.348,327.271 	"/>
	<polygon fill="#5C2311" points="521,322.105 520.702,323.042 521.002,323.379 521.223,323.084 	"/>
	
		<rect x="112.892" y="-166.777" transform="matrix(0.7071 -0.7071 0.7071 0.7071 149.6716 34.3974)" fill="#EE9B6E" width="6.93" height="6.611"/>
	
		<rect x="25.956" y="-46.729" transform="matrix(0.7071 -0.7071 0.7071 0.7071 38.7777 9.4928)" fill="#EE9B6E" width="9.783" height="9.333"/>
	
		<rect x="269.974" y="48.141" transform="matrix(0.7071 -0.7071 0.7071 0.7071 43.718 208.4306)" fill="#EE9B6E" width="6.93" height="6.611"/>
	
		<rect x="231.197" y="-33.212" transform="matrix(0.7071 -0.7071 0.7071 0.7071 89.3331 158.5794)" fill="#EE9B6E" width="9.783" height="9.333"/>
	
		<rect x="415.956" y="-215.729" transform="matrix(0.7071 -0.7071 0.7071 0.7071 272.5071 235.7654)" fill="#EE9B6E" width="9.783" height="9.333"/>
	
		<rect x="548.516" y="-68.998" transform="matrix(0.7072 -0.7071 0.7071 0.7072 208.4826 370.0344)" fill="#EE9B6E" width="4.883" height="4.658"/>
	
		<rect x="868.539" y="-240.729" transform="matrix(0.7071 -0.7071 0.7071 0.7071 422.7433 548.4677)" fill="#EE9B6E" width="9.783" height="9.333"/>
	
		<rect x="926.644" y="-142.018" transform="matrix(0.7071 -0.7071 0.7071 0.7071 370.5072 617.0587)" fill="#EE9B6E" width="6.93" height="6.61"/>
	
		<rect x="933.627" y="143.271" transform="matrix(0.7071 -0.7071 0.7071 0.7071 170.2781 706.9627)" fill="#EE9B6E" width="9.783" height="9.333"/>
	
		<rect x="145.389" y="-72.371" transform="matrix(0.7072 -0.7071 0.7071 0.7072 92.8145 84.013)" fill="#EE9B6E" width="4.883" height="4.658"/>
	
		<rect x="58.615" y="40.636" transform="matrix(0.7072 -0.7071 0.7071 0.7072 -12.4984 55.7524)" fill="#EE9B6E" width="4.883" height="4.658"/>
	
		<rect x="35.165" y="-213.392" transform="matrix(0.7072 -0.7071 0.7071 0.7072 160.2461 -35.2184)" fill="#EE9B6E" width="4.883" height="4.658"/>
	
		<rect x="947.812" y="-220.15" transform="matrix(0.7072 -0.7071 0.7071 0.7072 432.2876 608.0958)" fill="#EE9B6E" width="4.883" height="4.658"/>
	
		<rect x="844.824" y="-194.913" transform="matrix(0.7072 -0.7071 0.7071 0.7072 384.2836 542.668)" fill="#EE9B6E" width="4.883" height="4.658"/>
	
		<rect x="754.357" y="-65.624" transform="matrix(0.7072 -0.7071 0.7071 0.7072 266.377 516.564)" fill="#EE9B6E" width="4.883" height="4.658"/>
	
		<rect x="505.516" y="-11.998" transform="matrix(0.7072 -0.7071 0.7071 0.7072 155.5884 356.3237)" fill="#EE9B6E" width="4.883" height="4.658"/>
	
		<rect x="635.209" y="17.625" transform="matrix(0.7072 -0.7071 0.7071 0.7072 172.6234 456.6982)" fill="#EE9B6E" width="4.883" height="4.658"/>
</g>
<g id="Layer_2">
	
		<rect x="131.993" y="-8.862" transform="matrix(0.7071 -0.7071 0.7071 0.7071 43.6035 94.1553)" opacity="0.5" fill="#EE9B6E" width="6.93" height="6.611"/>
	
		<rect x="45.056" y="111.185" transform="matrix(0.7071 -0.7071 0.7071 0.7071 -67.2904 69.2507)" opacity="0.5" fill="#EE9B6E" width="9.783" height="9.333"/>
	
		<rect x="289.074" y="206.056" transform="matrix(0.7071 -0.7071 0.7071 0.7071 -62.3551 268.1948)" opacity="0.5" fill="#EE9B6E" width="6.93" height="6.611"/>
	
		<rect x="250.297" y="124.703" transform="matrix(0.7071 -0.7071 0.7071 0.7071 -16.735 218.3373)" opacity="0.5" fill="#EE9B6E" width="9.783" height="9.333"/>
	
		<rect x="381.343" y="58.327" transform="matrix(0.7071 -0.7071 0.7071 0.7071 68.5825 291.5592)" opacity="0.5" fill="#EE9B6E" width="9.783" height="9.333"/>
	
		<rect x="567.617" y="88.917" transform="matrix(0.7072 -0.7071 0.7071 0.7072 102.4218 429.7845)" opacity="0.5" fill="#EE9B6E" width="4.883" height="4.658"/>
	
		<rect x="875.287" y="196.982" transform="matrix(0.7071 -0.7071 0.7071 0.7071 115.2111 681.4419)" opacity="0.5" fill="#EE9B6E" width="9.783" height="9.333"/>
	
		<rect x="945.745" y="15.896" transform="matrix(0.7071 -0.7071 0.7071 0.7071 264.4392 676.817)" opacity="0.5" fill="#EE9B6E" width="6.93" height="6.612"/>
	
		<rect x="990.747" y="93.326" transform="matrix(0.7071 -0.7071 0.7071 0.7071 222.3249 732.7241)" opacity="0.5" fill="#EE9B6E" width="9.783" height="9.333"/>
	
		<rect x="164.489" y="85.544" transform="matrix(0.7072 -0.7071 0.7071 0.7072 -13.2467 143.7621)" opacity="0.5" fill="#EE9B6E" width="4.883" height="4.658"/>
	
		<rect x="77.715" y="198.55" transform="matrix(0.7071 -0.7071 0.7071 0.7071 -118.5655 115.5154)" opacity="0.5" fill="#EE9B6E" width="4.883" height="4.658"/>
	
		<rect x="41.911" y="224.32" transform="matrix(0.7072 -0.7071 0.7071 0.7072 -147.2651 97.7323)" opacity="0.5" fill="#EE9B6E" width="4.883" height="4.658"/>
	
		<rect x="954.558" y="217.561" transform="matrix(0.7072 -0.7071 0.7071 0.7072 124.7764 741.0466)" opacity="0.5" fill="#EE9B6E" width="4.883" height="4.658"/>
	
		<rect x="863.926" y="-36.998" transform="matrix(0.7072 -0.7071 0.7071 0.7072 278.2228 602.4182)" opacity="0.5" fill="#EE9B6E" width="4.883" height="4.658"/>
	
		<rect x="773.459" y="92.29" transform="matrix(0.7072 -0.7071 0.7071 0.7072 160.3162 576.3141)" opacity="0.5" fill="#EE9B6E" width="4.883" height="4.658"/>
	
		<rect x="524.617" y="145.916" transform="matrix(0.7071 -0.7071 0.7071 0.7071 49.5464 416.1068)" opacity="0.5" fill="#EE9B6E" width="4.883" height="4.658"/>
	
		<rect x="654.309" y="175.54" transform="matrix(0.7072 -0.707 0.707 0.7072 66.538 516.4053)" opacity="0.5" fill="#EE9B6E" width="4.883" height="4.657"/>
</g>
</svg>
