<?xml version="1.0" encoding="utf-8"?>
<!-- Generator: Adobe Illustrator 16.0.3, SVG Export Plug-In . SVG Version: 6.00 Build 0)  -->
<!DOCTYPE svg PUBLIC "-//W3C//DTD SVG 1.1//EN" "http://www.w3.org/Graphics/SVG/1.1/DTD/svg11.dtd">
<svg version="1.1" xmlns="http://www.w3.org/2000/svg" xmlns:xlink="http://www.w3.org/1999/xlink" x="0px" y="0px" width="350px"
	 height="500px" viewBox="0 0 350 500" enable-background="new 0 0 350 500" xml:space="preserve">
<g id="Layer_1">
	<polygon fill="#5D5469" points="158.048,67.653 34.411,54.288 32.166,62.412 34.876,65.116 35.789,73.009 31.076,90.611 
		32.435,93.993 21.18,112.282 22.01,113.859 20.057,115.666 22.166,118.069 20.814,119.125 21.718,120.326 20.066,122.283 
		26.993,129.041 28.8,131.144 27.901,133.25 30.309,134.15 31.517,137.307 32.721,138.508 32.724,140.914 34.681,142.115 
		34.085,146.176 35.742,147.827 34.995,151.589 35.75,153.392 33.051,159.712 34.568,169.787 35.476,174.296 33.677,177.308 
		44.828,193.984 51.001,199.691 52.214,205.704 54.923,208.107 52.38,217.736 53.432,217.734 55.084,216.227 59.149,219.231 
		62.161,222.384 62.309,220.429 67.882,226.437 68.481,225.083 70.135,224.479 67.268,217.565 70.873,213.8 75.235,214.846 
		75.54,217.854 72.383,219.062 72.236,221.168 70.129,220.117 71.938,223.424 73.743,223.57 74.048,226.428 72.995,226.43 
		73.448,228.083 76.158,229.884 77.818,234.394 79.179,239.656 82.19,241.758 78.881,241.762 74.361,235.603 70.899,233.802 
		71.344,228.538 70.439,227.186 67.433,227.792 65.792,238.17 68.655,241.776 68.97,252.152 76.351,261.165 83.119,261.156 
		86.585,266.865 86.143,273.032 83.892,276.494 82.085,274.844 80.733,276.499 81.639,279.055 81.946,283.565 85.266,291.231 
		91.592,298.591 99.28,311.514 104.1,317.072 111.478,324.131 112.689,329.542 111.641,332.552 115.707,336.757 116.757,334.649 
		118.865,336.753 119.175,344.121 117.525,346.53 119.631,347.88 117.985,353.297 119.943,355.249 117.845,360.365 122.208,362.014 
		124.168,365.319 136.046,363.949 143.27,367.85 152.745,367.837 159.667,371.287 163.734,376.093 165.996,380 179.537,384.192 
		186.455,384.184 191.428,391.545 190.529,394.555 193.69,396.806 199.101,394.844 207.835,402.501 215.06,407.604 222.288,414.813 
		226.812,423.379 228.931,433.302 231.196,440.367 234.961,443.821 317.514,435.736 317.509,432.729 320.365,431.672 
		320.36,427.912 320.357,426.107 317.647,424.006 312.834,423.262 312.38,421.156 313.125,415.892 311.914,410.179 313.416,408.071 
		315.367,405.361 316.718,403.404 318.062,396.485 317.148,388.364 319.548,383.851 326.309,378.427 329.159,373.46 
		321.328,366.553 320.119,361.291 316.352,356.183 313.64,352.276 313.481,346.411 150.993,187.222 151.436,180.756 
		151.581,176.995 150.226,176.094 	"/>
	<path fill="none" stroke="#141111" stroke-width="3" stroke-miterlimit="10" d="M258.723,443.788c0,0-4.29-2.927-4.065-3.829
		c0.224-0.902-0.455-2.933,4.053-5.871c0,0,1.576-1.581-0.005-3.158s0.238-2.03-1.689-3.156c-1.926-1.125-1.7-0.899-1.477-2.479
		c0.224-1.58,3.833-2.036-2.037-5.186c0,0-0.906-1.954-2.033-2.403c0,0-0.154-2.707-2.036-3.982c0,0-0.754-1.428-0.003-2.632
		c0,0,0.307-1.054-0.337-1.88c-0.646-0.826-0.271-2.405,2.06-2.634c0,0,0.602-0.152-0.528-1.805c0,0,0.749-1.58,0.371-3.083
		c-0.378-1.504-2.865-5.562-3.467-5.636s-2.559-1.726-2.56-2.553s0.6-1.054-0.002-1.579c-0.603-0.525,1.2-0.904,0.899-1.655
		c-0.302-0.752-0.154-2.933-0.305-3.233c-0.151-0.301-0.228-1.429-0.154-2.707c0.072-1.278-0.579-2.631-0.579-2.631
		s-0.63-1.277-0.555-1.578c0.073-0.301,1.048-3.234,0.37-4.287c-0.679-1.052-2.108-1.274-2.333-1.35
		c-0.226-0.075-0.526,0.15-2.632,0.003s-1.354,0.347-2.933-0.012c-1.58-0.357-2.78,1.766-4.136-0.008
		c-1.356-1.773-0.23-3.354-5.04-1.843c0,0-2.557,0.718-3.46,0.042s-3.381,1.584-5.414,0.12c-2.032-1.463-0.795-4.623-7.334-2.358
		c-6.538,2.265-5.526-0.105-5.526-0.105s-2.145-0.896-3.949-0.67c-1.805,0.227-3.723-0.898-4.29-2.815
		c-0.565-1.916-0.683-4.059-3.277-4.958c-2.596-0.898-1.808-2.366-4.063-2.024c-2.255,0.341-0.228-1.579-2.371-1.915
		c-2.144-0.335-3.045,0.343-3.047-0.56c0-0.902-4.848,0.346-2.145-1.802c2.703-2.146,3.495-1.132,3.717-3.389
		c0.223-2.256,3.947-0.118,4.059-1.923c0.109-1.806-0.684-4.85,0.896-4.852s2.257,0.787,2.367-1.131
		c0.109-1.918,2.027-2.033,2.139-3.5c0.109-1.466,2.14-2.146,1.347-4.739c-0.794-2.593-0.455-1.916-0.459-5.074
		c-0.005-3.158-3.389-4.056,1.461-3.95c4.851,0.106,2.701-4.966,3.939-5.982c1.239-1.018,3.836,0.22,3.376-5.532
		c-0.458-5.752-0.457-5.413-2.604-7.779c-2.146-2.364,0.447-3.158-0.118-4.736c-0.567-1.579-0.683-2.819-0.008-5.414
		c0.673-2.596,2.025-2.823,0.331-4.399c-1.694-1.577,1.801-3.725-0.907-3.946c-2.707-0.223-2.143,0.003-3.161-2.252
		c-1.018-2.254-1.81-3.381-1.812-5.411c-0.002-2.03-1.469-2.818-1.472-4.735c-0.003-1.918-1.694-1.577-1.697-2.931
		c-0.001-1.354-1.13-1.577-0.229-3.609c0.899-2.03-0.905-1.915-0.907-3.495c-0.003-1.579,0.335-2.256-1.696-3.155
		c0,0-0.564-0.111-1.581-1.464s-3.046,0.004-3.612-1.913c-0.566-1.916-3.047-1.123-3.387-2.363
		c-0.341-1.241-2.371-1.238-2.373-3.381c-0.004-2.143,0.219-4.964-0.686-5.977c-0.902-1.014-1.467-0.675-1.133-3.495
		c0.336-2.82-3.912-1.461-3.877-3.943c0.035-2.481-0.532-4.172-3.127-4.282c-2.594-0.108-1.354,0.002-1.243-1.577
		c0.111-1.58-0.792-2.594-1.132-3.157c-0.338-0.563-3.161-2.139-2.938-3.83c0.223-1.693,0.674-2.258-1.244-2.368
		c-1.917-0.11-1.469-2.028-2.709-2.14c-1.241-0.11-2.255,0.567-1.469-1.803c0.787-2.369,3.491-3.501,3.265-4.403
		c-0.228-0.902-3.944-1.687-3.555-3.378c0.389-1.694-0.742-4.398-2.21-5.524c-1.468-1.126-0.908-3.383-2.374-3.606
		c-1.467-0.224-2.94-5.185-3.729-5.296c-0.789-0.111-3.385-0.221-3.5-2.478c-0.116-2.255-0.681-2.706-1.47-2.816
		c-0.79-0.113,0.222-2.369-0.005-3.046c-0.227-0.676-1.58-1.238-1.92-2.592c-0.341-1.354-0.455-3.271-1.697-3.493
		c-1.24-0.224,0.676-0.678-0.792-1.917c-1.468-1.238,0.11-1.353-0.566-1.917c-0.678-0.562,0.507-0.676-0.087-2.03
		c-0.595-1.352,0.552-1.805-0.136-2.819c-0.688-1.014,0.214-2.143-1.593-3.607c-1.807-1.463-0.117-3.158-4.297-7.325
		c0,0-0.566-2.368-2.371-2.592c-1.806-0.223-1.469-1.689-1.583-2.817c-0.115-1.127-0.792-0.45-1.47-2.479
		c-0.68-2.028-2.372-2.817-3.276-3.492c-0.903-0.676-1.018-2.594-3.162-2.816c-2.144-0.223-6.428,1.813-6.439-6.759
		c0,0,0.676-1.354-2.596-2.026c-3.271-0.672-1.017-1.465-2.484-1.463c-1.465,0.002-2.482-0.334-2.258-1.914
		c0.224-1.58,1.237-3.274-1.133-3.946c-2.37-0.674,2.817-1.809,2.815-3.048c-0.002-1.242,2.254-1.81,2.363-3.84
		c0.11-2.029-1.92-2.253-1.357-3.494c0.562-1.241,0.448-1.466,0.11-2.143c-0.34-0.677,1.462-2.371,1.235-3.836
		c-0.228-1.466-1.807-1.125-2.597-1.803c-0.791-0.674,2.478-2.371,0.439-8.573c-2.039-6.2-10.391-10.136-10.391-10.136
		s0.561-2.144-0.003-2.481c-0.565-0.339-5.751,0.233-7.444,0.01c-1.691-0.223-5.87-3.15-6.886-3.375
		c-1.015-0.224-2.483-2.59-3.499-1.8c-1.014,0.791-2.93,1.713-2.932-0.155c-0.003-1.871,3.601-6.161-0.009-6.607
		c-3.61-0.446-0.337,0.79-4.169,2.712c-3.833,1.923-3.381,3.049-5.185,2.827c-1.805-0.224-3.497-0.108-3.499-1.236
		c-0.001-1.127,0.327-8.573-0.576-8.684c-0.902-0.111-1.58-0.335-1.581-1.578c-0.001-1.24-2.371-1.575-2.373-2.815
		c-0.002-1.242-1.808-2.14-1.697-3.72c0.11-1.579-1.246-3.269-1.022-4.623c0.224-1.354,1.347-4.851,2.248-6.319
		c0.899-1.467,1.805,0.674,3.045-0.005c1.239-0.678,1.803-1.502,3.383-0.53c1.58,0.975,2.591-2.297,2.591-2.297"/>
	<rect x="266.185" y="417.203" fill="#141111" width="5.982" height="13.599"/>
	<rect x="274.888" y="412.034" fill="#141111" width="5.984" height="24.752"/>
	<polygon fill="#141111" points="272.986,425.614 273.938,425.614 273.938,413.394 269.176,413.394 269.176,416.25 273.036,416.242 
			"/>
	<rect x="272.986" y="413.394" fill="#141111" width="0.951" height="12.221"/>
	<rect x="270.537" y="409.025" fill="#141111" width="3.4" height="3.57"/>
	<polyline fill="none" stroke="#141111" stroke-width="2" stroke-miterlimit="10" points="130.423,225.382 142.1,197.817 
		153.364,227.034 	"/>
	<polyline fill="none" stroke="#141111" stroke-width="2" stroke-miterlimit="10" points="137.428,208.845 138.925,210.58 
		141.874,207.91 144.037,210.948 145.707,207.174 	"/>
	<polyline fill="none" stroke="#141111" stroke-width="2" stroke-miterlimit="10" points="134.237,250.675 145.913,223.109 
		157.178,252.326 	"/>
	<polyline fill="none" stroke="#141111" stroke-width="2" stroke-miterlimit="10" points="141.241,234.138 142.738,235.872 
		145.688,233.202 147.851,236.24 149.521,232.466 	"/>
	<polyline fill="none" stroke="#141111" stroke-width="2" stroke-miterlimit="10" points="157.178,270.928 168.854,243.362 
		180.119,272.578 	"/>
	<polyline fill="none" stroke="#141111" stroke-width="2" stroke-miterlimit="10" points="164.182,254.391 165.679,256.125 
		168.628,253.455 170.792,256.492 172.461,252.719 	"/>
	<polyline fill="none" stroke="#141111" stroke-width="2" stroke-miterlimit="10" points="111.296,200.292 122.972,172.727 
		134.237,201.943 	"/>
	<polyline fill="none" stroke="#141111" stroke-width="2" stroke-miterlimit="10" points="118.301,183.755 119.797,185.489 
		122.747,182.819 124.909,185.857 126.58,182.083 	"/>
	<polyline fill="none" stroke="#141111" stroke-width="2" stroke-miterlimit="10" points="118.301,208.25 126.58,196.25 
		134.237,208.25 	"/>
	<polyline fill="none" stroke="#141111" stroke-width="2" stroke-miterlimit="10" points="116.232,218.425 124.511,206.425 
		132.168,218.425 	"/>
	<polyline fill="none" stroke="#141111" stroke-width="2" stroke-miterlimit="10" points="116.232,234.25 124.511,222.25 
		132.168,234.25 	"/>
	<polyline fill="none" stroke="#141111" stroke-width="2" stroke-miterlimit="10" points="165.146,240.25 157.488,228.25 
		151.334,237.17 	"/>
	<rect x="393.232" y="229.561" fill="#141111" width="5.667" height="28"/>
	<rect x="401.566" y="235.227" fill="#141111" width="3" height="8.334"/>
	<rect x="387.566" y="239.394" fill="#141111" width="3" height="8.833"/>
	<rect x="387.566" y="245.227" fill="#141111" width="8.833" height="3"/>
	<rect x="395.191" y="240.561" fill="#141111" width="8.833" height="3"/>
	<rect x="412.275" y="251.935" fill="#141111" width="3.264" height="16.126"/>
	<rect x="417.075" y="255.197" fill="#141111" width="1.728" height="4.8"/>
	<rect x="409.012" y="257.598" fill="#141111" width="1.728" height="5.087"/>
	<rect x="409.012" y="260.957" fill="#141111" width="5.087" height="1.728"/>
	<rect x="413.403" y="258.27" fill="#141111" width="5.087" height="1.728"/>
	<rect x="394.549" y="266.234" fill="#141111" width="2.715" height="13.416"/>
	<rect x="398.542" y="268.949" fill="#141111" width="1.438" height="3.993"/>
	<rect x="391.834" y="270.945" fill="#141111" width="1.438" height="4.232"/>
	<rect x="391.834" y="273.74" fill="#141111" width="4.232" height="1.438"/>
	<rect x="395.487" y="271.505" fill="#141111" width="4.232" height="1.438"/>
	<line fill="none" stroke="#141111" stroke-width="2" stroke-miterlimit="10" x1="57.517" y1="101.25" x2="57.517" y2="130"/>
	<line fill="none" stroke="#141111" stroke-width="2" stroke-miterlimit="10" x1="58.603" y1="102.075" x2="64.125" y2="106.832"/>
	<line fill="none" stroke="#141111" stroke-width="2" stroke-miterlimit="10" x1="58.603" y1="106.062" x2="64.125" y2="110.819"/>
	<line fill="none" stroke="#141111" stroke-width="2" stroke-miterlimit="10" x1="58.603" y1="110.288" x2="64.125" y2="115.045"/>
	<line fill="none" stroke="#141111" stroke-width="2" stroke-miterlimit="10" x1="58.603" y1="114.275" x2="64.125" y2="119.032"/>
	<line fill="none" stroke="#141111" stroke-width="2" stroke-miterlimit="10" x1="56.321" y1="102.341" x2="50.8" y2="107.098"/>
	<line fill="none" stroke="#141111" stroke-width="2" stroke-miterlimit="10" x1="56.321" y1="106.328" x2="50.8" y2="111.084"/>
	<line fill="none" stroke="#141111" stroke-width="2" stroke-miterlimit="10" x1="56.321" y1="110.554" x2="50.8" y2="115.311"/>
	<line fill="none" stroke="#141111" stroke-width="2" stroke-miterlimit="10" x1="56.321" y1="114.541" x2="50.8" y2="119.298"/>
	<line fill="none" stroke="#141111" stroke-width="2" stroke-miterlimit="10" x1="74.667" y1="119.544" x2="74.667" y2="148.294"/>
	<line fill="none" stroke="#141111" stroke-width="2" stroke-miterlimit="10" x1="75.753" y1="120.369" x2="81.275" y2="125.126"/>
	<line fill="none" stroke="#141111" stroke-width="2" stroke-miterlimit="10" x1="75.753" y1="124.356" x2="81.275" y2="129.113"/>
	<line fill="none" stroke="#141111" stroke-width="2" stroke-miterlimit="10" x1="75.753" y1="128.582" x2="81.275" y2="133.339"/>
	<line fill="none" stroke="#141111" stroke-width="2" stroke-miterlimit="10" x1="75.753" y1="132.569" x2="81.275" y2="137.326"/>
	<line fill="none" stroke="#141111" stroke-width="2" stroke-miterlimit="10" x1="73.472" y1="120.635" x2="67.95" y2="125.392"/>
	<line fill="none" stroke="#141111" stroke-width="2" stroke-miterlimit="10" x1="73.472" y1="124.622" x2="67.95" y2="129.378"/>
	<line fill="none" stroke="#141111" stroke-width="2" stroke-miterlimit="10" x1="73.472" y1="128.848" x2="67.95" y2="133.605"/>
	<line fill="none" stroke="#141111" stroke-width="2" stroke-miterlimit="10" x1="73.472" y1="132.834" x2="67.95" y2="137.592"/>
	<line fill="none" stroke="#141111" stroke-width="2" stroke-miterlimit="10" x1="93.179" y1="99.9" x2="93.179" y2="128.65"/>
	<line fill="none" stroke="#141111" stroke-width="2" stroke-miterlimit="10" x1="94.265" y1="100.725" x2="99.787" y2="105.482"/>
	<line fill="none" stroke="#141111" stroke-width="2" stroke-miterlimit="10" x1="94.265" y1="104.712" x2="99.787" y2="109.469"/>
	<line fill="none" stroke="#141111" stroke-width="2" stroke-miterlimit="10" x1="94.265" y1="108.938" x2="99.787" y2="113.695"/>
	<line fill="none" stroke="#141111" stroke-width="2" stroke-miterlimit="10" x1="94.265" y1="112.925" x2="99.787" y2="117.682"/>
	<line fill="none" stroke="#141111" stroke-width="2" stroke-miterlimit="10" x1="91.983" y1="100.991" x2="86.462" y2="105.748"/>
	<line fill="none" stroke="#141111" stroke-width="2" stroke-miterlimit="10" x1="91.983" y1="104.978" x2="86.462" y2="109.734"/>
	<line fill="none" stroke="#141111" stroke-width="2" stroke-miterlimit="10" x1="91.983" y1="109.204" x2="86.462" y2="113.961"/>
	<line fill="none" stroke="#141111" stroke-width="2" stroke-miterlimit="10" x1="91.983" y1="113.19" x2="86.462" y2="117.948"/>
	<line fill="none" stroke="#141111" stroke-width="2" stroke-miterlimit="10" x1="119.5" y1="67.25" x2="119.5" y2="96"/>
	<line fill="none" stroke="#141111" stroke-width="2" stroke-miterlimit="10" x1="120.586" y1="68.075" x2="126.108" y2="72.832"/>
	<line fill="none" stroke="#141111" stroke-width="2" stroke-miterlimit="10" x1="120.586" y1="72.062" x2="126.108" y2="76.819"/>
	<line fill="none" stroke="#141111" stroke-width="2" stroke-miterlimit="10" x1="120.586" y1="76.288" x2="126.108" y2="81.045"/>
	<line fill="none" stroke="#141111" stroke-width="2" stroke-miterlimit="10" x1="120.586" y1="80.275" x2="126.108" y2="85.032"/>
	<line fill="none" stroke="#141111" stroke-width="2" stroke-miterlimit="10" x1="118.305" y1="68.341" x2="112.783" y2="73.098"/>
	<line fill="none" stroke="#141111" stroke-width="2" stroke-miterlimit="10" x1="118.305" y1="72.328" x2="112.783" y2="77.084"/>
	<line fill="none" stroke="#141111" stroke-width="2" stroke-miterlimit="10" x1="118.305" y1="76.554" x2="112.783" y2="81.311"/>
	<line fill="none" stroke="#141111" stroke-width="2" stroke-miterlimit="10" x1="118.305" y1="80.541" x2="112.783" y2="85.298"/>
	<line fill="none" stroke="#141111" stroke-width="2" stroke-miterlimit="10" x1="134.291" y1="85.525" x2="134.291" y2="114.275"/>
	<line fill="none" stroke="#141111" stroke-width="2" stroke-miterlimit="10" x1="135.377" y1="86.35" x2="140.899" y2="91.107"/>
	<line fill="none" stroke="#141111" stroke-width="2" stroke-miterlimit="10" x1="135.377" y1="90.337" x2="140.899" y2="95.094"/>
	<line fill="none" stroke="#141111" stroke-width="2" stroke-miterlimit="10" x1="135.377" y1="94.563" x2="140.899" y2="99.32"/>
	<line fill="none" stroke="#141111" stroke-width="2" stroke-miterlimit="10" x1="135.377" y1="98.55" x2="140.899" y2="103.307"/>
	<line fill="none" stroke="#141111" stroke-width="2" stroke-miterlimit="10" x1="133.096" y1="86.616" x2="127.574" y2="91.373"/>
	<line fill="none" stroke="#141111" stroke-width="2" stroke-miterlimit="10" x1="133.096" y1="90.603" x2="127.574" y2="95.359"/>
	<line fill="none" stroke="#141111" stroke-width="2" stroke-miterlimit="10" x1="133.096" y1="94.829" x2="127.574" y2="99.586"/>
	<line fill="none" stroke="#141111" stroke-width="2" stroke-miterlimit="10" x1="133.096" y1="98.815" x2="127.574" y2="103.573"/>
	<line fill="none" stroke="#141111" stroke-width="2" stroke-miterlimit="10" x1="44.192" y1="76.732" x2="44.192" y2="105.482"/>
	<line fill="none" stroke="#141111" stroke-width="2" stroke-miterlimit="10" x1="45.278" y1="77.557" x2="50.8" y2="82.314"/>
	<line fill="none" stroke="#141111" stroke-width="2" stroke-miterlimit="10" x1="45.278" y1="81.544" x2="50.8" y2="86.301"/>
	<line fill="none" stroke="#141111" stroke-width="2" stroke-miterlimit="10" x1="45.278" y1="85.77" x2="50.8" y2="90.527"/>
	<line fill="none" stroke="#141111" stroke-width="2" stroke-miterlimit="10" x1="45.278" y1="89.757" x2="50.8" y2="94.514"/>
	<line fill="none" stroke="#141111" stroke-width="2" stroke-miterlimit="10" x1="42.997" y1="77.823" x2="37.475" y2="82.58"/>
	<line fill="none" stroke="#141111" stroke-width="2" stroke-miterlimit="10" x1="42.997" y1="81.81" x2="37.475" y2="86.566"/>
	<line fill="none" stroke="#141111" stroke-width="2" stroke-miterlimit="10" x1="42.997" y1="86.036" x2="37.475" y2="90.793"/>
	<line fill="none" stroke="#141111" stroke-width="2" stroke-miterlimit="10" x1="42.997" y1="90.022" x2="37.475" y2="94.78"/>
</g>
<g id="Layer_2">
	<path fill="#141111" d="M280.734,378.618c0,0,3.831-0.437,3.395-3.492c-0.437-3.055-4.316-4.849-4.559-5.432
		c-0.242-0.581-0.437,0.243-0.824,0.437C278.357,370.326,272.151,375.417,280.734,378.618z"/>
	<path fill="#141111" d="M277.437,370.52c0,0-1.31-3.928,2.377-6.789c0,0,0.872-1.26,1.115-0.824
		c0.242,0.437,4.024,4.121,2.182,8.972c0,0-2.497-1.524-2.922-2.388c-0.424-0.862-0.957-0.911-1.346-0.231
		C278.455,369.938,277.437,370.52,277.437,370.52z"/>
	<path fill="#141111" d="M284.163,368.435c0,0,0.548,1.696-0.762,3.976l0.438,0.728c0,0,4.945-2.23,5.526-6.255
		c0.582-4.024-0.339-8.777-0.775-8.486c-0.437,0.292-0.049,0.292-0.533,0.873s-2.716,3.545-2.716,3.545
		S286.138,365.961,284.163,368.435z"/>
	<path fill="#141111" d="M283.062,365.331c0,0,0.679,1.018,0.823,1.649c0,0,1.406-1.989,1.019-2.23
		C284.517,364.507,283.062,365.331,283.062,365.331z"/>
	<path fill="#141111" d="M277.873,364.704c0,0-0.437-3.763,4.897-6.319c0,0,0.631-0.085,0.631,0.545c0,0.631,1.693,3.115,1.794,5.14
		c0,0-1.975,0.334-2.376,0.635c0,0-1.503-2.574-2.085-2.331C280.152,362.615,278.406,364.271,277.873,364.704z"/>
	<path fill="#141111" d="M284.163,373.527c0,0,0.597,1.113,0.597,1.745c0,0,4.897,0.049,5.527-0.534
		c0.631-0.581,1.825-2.771,0.485-5.576c0,0,0.049-0.825-0.243-0.679c-0.29,0.145-1.405,0.291-1.405,0.291
		S289.483,371.15,284.163,373.527z"/>
	<path fill="#141111" d="M271.908,360.821c0,0-0.824,0.059-1.212,1.993c-0.388,1.936-0.873,8.238,5.092,10.713
		c0,0-0.115-1.288,0.97-2.28c0,0-2.812-7.953-3.637-9.116C272.296,360.967,272.184,360.705,271.908,360.821z"/>
	<path fill="#141111" d="M276.758,370.374c0,0-2.134-7.762-4.219-9.578c0,0,0.291-2.352,0.775-2.107
		c0.485,0.241,0.146,0.241,0.679,0.63c0.534,0.388,2.765,2.456,3.492,5.203c0,0-0.146,0.47,0,0.907
		C277.485,365.429,276.225,367.319,276.758,370.374z"/>
	<path fill="#141111" d="M284.973,375.756c0,0-0.262,1.94-1.91,2.62c0,0,8.534,3.879,14.499-0.922c0,0,2.182-1.357,1.987-4.316
		c0,0-1.891-0.291-3.782,0.39C293.875,374.206,290.665,375.66,284.973,375.756z"/>
	<path fill="#141111" d="M262.404,372.071c0,0-0.631,1.552,0.242,2.958c0.873,1.407,6.256,8.68,17.021,3.589
		c0,0-2.182-0.814-3.103-1.935c0,0-2.813,1.44-7.469-0.447c-4.654-1.886-5.285-4.165-5.285-4.165H262.404z"/>
	<path fill="#141111" d="M280.188,378.86l-0.909,0.727v2.474c0,0,1.115-0.922,1.939-0.582l0.291,0.085v-2.703l-0.824,0.218
		L280.188,378.86z"/>
	<path fill="#141111" d="M282.141,379.309v2.268c0,0,0.679,0.388,1.019,0.908v-3.115
		C283.159,379.369,282.553,379.454,282.141,379.309z"/>
	<path fill="#141111" d="M281.51,383.263c0,0.622-0.499,1.126-1.115,1.126l0,0c-0.616,0-1.115-0.504-1.115-1.126v-1.734
		c0-0.622,0.499-1.125,1.115-1.125l0,0c0.616,0,1.115,0.503,1.115,1.125V383.263z"/>
	<path fill="#141111" d="M283.159,383.553c0,0.281-0.229,0.509-0.51,0.509l0,0c-0.28,0-0.509-0.228-0.509-0.509v-2.135
		c0-0.281,0.229-0.509,0.509-0.509l0,0c0.281,0,0.51,0.228,0.51,0.509V383.553z"/>
	<path fill="#141111" d="M258.448,355.751c0,0,4.856-0.554,4.303-4.427c-0.553-3.872-5.471-6.146-5.778-6.885
		c-0.307-0.736-0.553,0.309-1.045,0.554C255.436,345.24,247.569,351.693,258.448,355.751z"/>
	<path fill="#141111" d="M254.269,345.485c0,0-1.66-4.979,3.013-8.605c0,0,1.105-1.597,1.413-1.044s5.102,5.224,2.766,11.371
		c0,0-3.165-1.932-3.703-3.026c-0.538-1.093-1.214-1.154-1.706-0.293C255.56,344.748,254.269,345.485,254.269,345.485z"/>
	<path fill="#141111" d="M262.795,342.843c0,0,0.694,2.15-0.966,5.039l0.555,0.923c0,0,6.269-2.827,7.005-7.929
		c0.737-5.102-0.43-11.126-0.983-10.757c-0.553,0.37-0.062,0.37-0.676,1.106s-3.442,4.493-3.442,4.493
		S265.297,339.707,262.795,342.843z"/>
	<path fill="#141111" d="M261.399,338.909c0,0,0.86,1.29,1.044,2.091c0,0,1.782-2.521,1.291-2.827
		C263.242,337.864,261.399,338.909,261.399,338.909z"/>
	<path fill="#141111" d="M254.821,338.114c0,0-0.553-4.77,6.208-8.01c0,0,0.8-0.107,0.8,0.69c0,0.8,2.146,3.949,2.273,6.515
		c0,0-2.503,0.424-3.012,0.805c0,0-1.904-3.263-2.643-2.954C257.711,335.467,255.497,337.566,254.821,338.114z"/>
	<path fill="#141111" d="M262.795,349.298c0,0,0.756,1.411,0.756,2.212c0,0,6.208,0.062,7.006-0.677
		c0.8-0.736,2.313-3.513,0.615-7.068c0,0,0.062-1.046-0.308-0.859c-0.368,0.183-1.781,0.368-1.781,0.368
		S269.538,346.285,262.795,349.298z"/>
	<path fill="#141111" d="M247.261,333.192c0,0-1.045,0.074-1.536,2.526c-0.491,2.454-1.106,10.442,6.454,13.579
		c0,0-0.146-1.632,1.229-2.89c0,0-3.565-10.081-4.61-11.556C247.752,333.377,247.61,333.046,247.261,333.192z"/>
	<path fill="#141111" d="M253.408,345.301c0,0-2.705-9.838-5.348-12.141c0,0,0.369-2.98,0.982-2.671
		c0.615,0.306,0.185,0.306,0.86,0.799c0.678,0.491,3.505,3.112,4.427,6.595c0,0-0.185,0.596,0,1.15
		C254.33,339.033,252.732,341.43,253.408,345.301z"/>
	<path fill="#141111" d="M263.82,352.123c0,0-0.331,2.46-2.421,3.321c0,0,10.817,4.916,18.378-1.169c0,0,2.766-1.721,2.52-5.471
		c0,0-2.396-0.369-4.795,0.493C275.104,350.158,271.036,352.002,263.82,352.123z"/>
	<path fill="#141111" d="M235.214,347.452c0,0-0.799,1.968,0.308,3.75c1.106,1.783,7.93,11.002,21.574,4.549
		c0,0-2.766-1.032-3.933-2.452c0,0-3.566,1.826-9.467-0.566c-5.9-2.391-6.699-5.28-6.699-5.28H235.214z"/>
	<path fill="#141111" d="M257.757,356.058l-1.152,0.921v3.136c0,0,1.413-1.168,2.458-0.737l0.369,0.107v-3.427l-1.045,0.276
		L257.757,356.058z"/>
	<path fill="#141111" d="M260.23,356.626v2.874c0,0,0.86,0.492,1.291,1.151v-3.948C261.521,356.703,260.753,356.811,260.23,356.626z
		"/>
	<path fill="#141111" d="M259.432,361.639c0,0.788-0.633,1.427-1.414,1.427l0,0c-0.781,0-1.413-0.639-1.413-1.427v-2.199
		c0-0.788,0.632-1.426,1.413-1.426l0,0c0.781,0,1.414,0.638,1.414,1.426V361.639z"/>
	<path fill="#141111" d="M261.521,362.006c0,0.356-0.289,0.645-0.646,0.645l0,0c-0.355,0-0.646-0.288-0.646-0.645V359.3
		c0-0.356,0.29-0.645,0.646-0.645l0,0c0.356,0,0.646,0.288,0.646,0.645V362.006z"/>
</g>
</svg>
