<?xml version="1.0" encoding="utf-8"?>
<!-- Generator: Adobe Illustrator 16.0.3, SVG Export Plug-In . SVG Version: 6.00 Build 0)  -->
<!DOCTYPE svg PUBLIC "-//W3C//DTD SVG 1.1//EN" "http://www.w3.org/Graphics/SVG/1.1/DTD/svg11.dtd">
<svg version="1.1" id="Layer_1" xmlns="http://www.w3.org/2000/svg" xmlns:xlink="http://www.w3.org/1999/xlink" x="0px" y="0px"
	 width="80px" height="120px" viewBox="0 0 80 120" enable-background="new 0 0 80 120" xml:space="preserve">
<path fill="#DE6C26" d="M39.236,29.611c0,0,0.307,0.967,0.951,1.074c0.645,0.113,0.457,0.082,0.645-0.536
	c0.19-0.618,0.459-1.44,1.456-1.353v-0.34c0,0-1.059-0.646-1.525-0.62c-0.469,0.027-1.526,0.163-1.526,0.163
	s0.709,0.467,0.733,0.798C40,29.129,39.445,29.452,39.236,29.611z"/>
<path fill="#DE6C26" d="M39.236,28.374c0,0-0.178,0.54,0.117,0.62c0.296,0.082,0.376-0.198,0.376-0.198s-0.04,0.516-0.493,0.489
	C38.789,29.263,38.662,28.258,39.236,28.374z"/>
<path fill="#DE6C26" d="M41.773,29.287c0,0-0.672,0.513-0.35,0.998s0.594,0.81,0.594,0.81l3.348,2.124l19.016,11.269l0.611-1.04
	L47.371,29.88C47.371,29.88,42.1,28.922,41.773,29.287z"/>
<path fill="#DE6C26" d="M39.013,30.165c0,0,0.035,0.685,0.716,0.9l-3.265,4.559L16.686,46.424c0,0-0.925-0.537-0.173-1.11
	C16.513,45.314,37.335,29.647,39.013,30.165z"/>
<path fill="#DE6C26" d="M40.762,27.371c0,0,1.388,0.429,1.525,0.647L49.42,4.117h-0.863c0,0-6.314,15.36-6.891,16.722
	c-0.572,1.364-1.364,3.374-1.219,3.731S40.762,27.371,40.762,27.371z"/>
<path fill="#DE6C26" d="M39.945,31.032c0,0-0.216,1.72,0,1.864c0.215,0.145,2.665-0.934,2.665-0.934l-0.15-0.34
	c0,0-1.092-0.786-1.121-0.887C41.307,30.636,41.666,31.209,39.945,31.032z"/>
<path fill="#DE6C26" d="M40.053,33.112c0,0,0.2,0.591,0.709,0.782l3.167-1.355l-0.969-0.576L40.053,33.112z"/>
<path fill="#DE6C26" d="M42.744,28.018c0,0-0.539,0.231-0.324,0.347c0.217,0.118,0.309,0.338,0.189,0.462l3.58,0.46
	c0,0-1.184-1.273-1.58-1.452C44.213,27.658,42.852,27.765,42.744,28.018z"/>
<path fill="#DE6C26" d="M41.229,34.188l1.838,1.795c0,0,0.863-1.507,2.584-0.897c0,0-1.004-0.716-2.045,0
	c0,0,1.436-1.364,3.016,0.289c0,0-0.719-0.434-0.611,0.068c0.107,0.505,0.035,1.903,0.035,1.903s1.832,0.084,2.834-0.683
	c0,0,0.461-0.345,0.936-0.438c0.471-0.092,0.355,0,0.355,0l-5.596-3.301l4.557,3.094c0,0-0.215,0.213-0.752-0.106
	c-0.537-0.325-1.436-1.045-1.436-1.045l1.221,1.358l-4.234-3.475L41.229,34.188z"/>
<path fill="#DE6C26" d="M43.209,36.226l-0.6,18.295l-1.769,59.668c0,0-0.93,0.164-0.831,0.469c0.26,0.805,0.26,0.805,0.26,0.805
	s7.803,0.645,8.692,0.27c0.889-0.377,0-0.756,0-0.756l-2.164-51.604l-1.09-27.821C45.707,35.552,44.219,34.641,43.209,36.226z"/>
</svg>
